{"title":"Son of Frankenstein(1939)MPEG-4[DaScubaDude]","uid":15035799,"size":1004952374,"categoryP":"video","categoryS":"movies","magnet":"?xt=urn:btih:9b6fe830bea61b9d8f781326f2247332ef79cbca&amp;dn=Son+of+Frankenstein%281939%29MPEG-4%5BDaScubaDude%5D&amp;tr=udp%3A%2F%2Ftracker.leechers-paradise.org%3A6969&amp;tr=udp%3A%2F%2Fzer0day.ch%3A1337&amp;tr=udp%3A%2F%2Fopen.demonii.com%3A1337&amp;tr=udp%3A%2F%2Ftracker.coppersurfer.tk%3A6969&amp;tr=udp%3A%2F%2Fexodus.desync.com%3A6969","seeders":0,"leechers":2,"uploader":"dascuba","files":1,"time":1466583058,"description":"Son of Frankenstein (1939)\r\nApproved | 1h 39min | Sci-Fi, Horror, Drama | 13 January 1939 (USA)\r\nOne of the sons of Frankenstein finds his father's monster in a coma and revives him, only to find out he is controlled by Ygor who is bent on revenge.\r\nDirector: Rowland V. Lee\r\nWriters: Mary Shelley (suggested by the story written in 1816) (as Mary Wollstonecraft Shelley), Wyllis Cooper (screenplay) (as Willis Cooper)\r\nStars: Boris Karloff, Basil Rathbone, Bela Lugosi |\r\n\r\nGeneral\r\nComplete name                            : SonofFrankensteinFRANKENSTEIN_Title1.mp4\r\nFormat                                   : MPEG-4\r\nFormat profile                           : Base Media\r\nCodec ID                                 : isom (isom/iso2/avc1/mp41)\r\nFile size                                : 958 MiB\r\nDuration                                 : 1h 39mn\r\nOverall bit rate                         : 1 352 Kbps\r\nMovie name                               : FRANKENSTEIN\r\nGenre                                    : Horror\r\nWriting application                      : Lavf54.6.100\r\n\r\nVideo\r\nID                                       : 1\r\nFormat                                   : AVC\r\nFormat/Info                              : Advanced Video Codec\r\nFormat profile                           :   \r\nFormat settings, CABAC                   : No\r\nFormat settings, ReFrames                : 6 frames\r\nCodec ID                                 : avc1\r\nCodec ID/Info                            : Advanced Video Coding\r\nDuration                                 : 1h 39mn\r\nBit rate                                 : 1 208 Kbps\r\nWidth                                    : 720 pixels\r\nHeight                                   : 540 pixels\r\nDisplay aspect ratio                     : 4:3\r\nFrame rate mode                          : Constant\r\nFrame rate                               : 29.970 (30000/1001) fps\r\nColor space                              : YUV\r\nChroma subsampling                       : 4:2:0\r\nBit depth                                : 8 bits\r\nScan type                                : Progressive\r\nBits/(Pixel*Frame)                       : 0.104\r\nStream size                              : 856 MiB (89%)\r\n\r\nAudio\r\nID                                       : 2\r\nFormat                                   : AAC\r\nFormat/Info                              : Advanced Audio Codec\r\nFormat profile                           : LC\r\nCodec ID                                 : 40\r\nDuration                                 : 1h 39mn\r\nBit rate mode                            : Constant\r\nBit rate                                 : 137 Kbps\r\nChannel(s)                               : 2 channels\r\nChannel positions                        : Front: L R\r\nSampling rate                            : 44.1 KHz\r\nFrame rate                               : 43.066 fps (1024 spf)\r\nCompression mode                         : Lossy\r\nStream size                              : 97.4 MiB (10%)\r\nDefault                                  : Yes\r\nAlternate group                          : 1","torrent":{"xt":"urn:btih:9b6fe830bea61b9d8f781326f2247332ef79cbca","amp;dn":"Son+of+Frankenstein%281939%29MPEG-4%5BDaScubaDude%5D","amp;tr":["udp%3A%2F%2Ftracker.leechers-paradise.org%3A6969","udp%3A%2F%2Fzer0day.ch%3A1337","udp%3A%2F%2Fopen.demonii.com%3A1337","udp%3A%2F%2Ftracker.coppersurfer.tk%3A6969","udp%3A%2F%2Fexodus.desync.com%3A6969"],"infoHash":"9b6fe830bea61b9d8f781326f2247332ef79cbca","infoHashBuffer":{"type":"Buffer","data":[155,111,232,48,190,166,27,157,143,120,19,38,242,36,115,50,239,121,203,202]},"announce":[],"urlList":[]}}